<?xml version="1.0" encoding="UTF-8"?>
<svg id="Layer_2" data-name="Layer 2" xmlns="http://www.w3.org/2000/svg" viewBox="0 0 329.29059 331.95966">
  <defs>
    <style>
      .cls-1 {
        fill: #121212;
      }
    </style>
  </defs>
  <g id="Layer_1-2" data-name="Layer 1">
    <g>
      <path class="cls-1" d="M3.08228,127.92737c.00403-.01764,.00958-.04211,.01105-.04852,.00385-.01678-.00098,.00433-.01105,.04852Z"/>
      <path class="cls-1" d="M3.09332,204.08087c-.00146-.00641-.00702-.03088-.01105-.04852,.01007,.04419,.01489,.06531,.01105,.04852Z"/>
      <path class="cls-1" d="M326.19891,204.07367c-.00037,.00128-.00171,.00739-.00195,.0083-.00171,.00745-.00098,.00439,.00195-.0083Z"/>
      <path class="cls-1" d="M293.72284,61.62701c-.00854-.01068-.0155-.01947-.02234-.02802,.00598,.00739,.01208,.01526,.01794,.02258,.00146,.00177,.00293,.00366,.00439,.00543Z"/>
      <path class="cls-1" d="M235.61926,316.02429c.01202-.0058,.02472-.0119,.03662-.01764-.00531,.00256-.00848,.00409-.01331,.00641-.00757,.0036-.01703,.00818-.02332,.01123Z"/>
      <path class="cls-1" d="M34.95264,269.56134c.06165,.07727,.12207,.15308,.18066,.22656-.05243-.06573-.10236-.12842-.15009-.18823-.0097-.01215-.02063-.02582-.03058-.03833Z"/>
      <path class="cls-1" d="M91.65826,16.90485c-.02539,.01221-.0448,.02155-.06195,.02985,.00159-.00079,.00323-.00159,.00482-.00232,.01868-.00903,.03876-.01868,.05713-.02753Z"/>
      <path class="cls-1" d="M294.27228,269.64368c.05188-.06494,.10437-.13086,.15686-.19672-.03955,.04956-.07812,.0979-.12183,.15271-.01111,.01398-.02368,.02966-.03503,.04401Z"/>
      <path class="cls-1" d="M235.6814,15.96527c-.02002-.00964-.04175-.02008-.06213-.02991,.00848,.00409,.02289,.01105,.03357,.01617,.01001,.00482,.01617,.00775,.02856,.01373Z"/>
      <path class="cls-1" d="M2.60236,201.92993c.01221,.05334,.0271,.11865,.04523,.19812-.0144-.06311-.02264-.09888-.034-.14886-.00391-.01703-.00726-.0318-.01123-.04926Z"/>
      <path class="cls-1" d="M91.96844,16.75543c-.0296,.01428-.06433,.03101-.09174,.04419,.00464-.00226,.00897-.00433,.01373-.00659,.02258-.01086,.05292-.02551,.078-.0376Z"/>
      <path class="cls-1" d="M93.60919,315.99438c.02002,.00964,.04175,.02008,.06213,.02991-.00848-.00409-.02289-.01105-.03357-.01617-.01001-.00482-.01617-.00775-.02856-.01373Z"/>
      <path class="cls-1" d="M2.60236,130.02979c.00397-.01746,.00732-.03223,.01123-.04926,.01135-.04999,.01959-.08575,.034-.14886-.01813,.07947-.03302,.14478-.04523,.19812Z"/>
      <path class="cls-1" d="M326.21674,203.99585c-.00085,.00342-.00195,.00812-.00269,.01141-.0072,.03137-.01233,.05371-.01514,.06641,.00269-.01178,.00781-.03448,.01782-.07782Z"/>
      <path class="cls-1" d="M91.5838,16.94067c.00092-.00043,.00208-.00098,.00311-.00146,.00244-.00116,.00677-.00323,.0094-.00452-.00421,.00201-.00842,.00397-.01251,.00598Z"/>
      <path class="cls-1" d="M326.28436,203.69958c.00842-.03717,.01746-.0766,.02673-.11731-.00452,.01953-.0094,.04102-.01379,.06067-.00415,.01825-.00916,.03986-.01294,.05664Z"/>
      <path class="cls-1" d="M91.76196,16.85492c.00598-.00287,.01105-.00531,.01685-.00812,.03149-.01514,.05927-.02856,.0979-.04718-.0415,.02002-.07959,.03839-.11475,.0553Z"/>
      <path class="cls-1" d="M93.10577,16.2077c-.52795,.25421-.8902,.42871-1.13733,.54773,.05951-.02869,.11719-.0564,.18439-.08875,.29803-.14355,.65491-.31543,.95294-.45898Z"/>
      <path class="cls-1" d="M235.77814,16.0119c-.0304-.01465-.06549-.03156-.09674-.04663,.00732,.00354,.01166,.00562,.01978,.00958,.02295,.01105,.04877,.0235,.07697,.03705Z"/>
      <path class="cls-1" d="M326.71698,201.80402c-.00195,.00867-.00403,.01752-.00635,.02777-.00049,.00244-.00171,.00769-.00232,.01019,.00281-.01257,.00586-.02551,.00867-.03796Z"/>
      <path class="cls-1" d="M3.07391,127.96387c.00232-.01025,.00433-.0191,.00635-.02777,.00098-.00421,.00116-.00494,.00201-.00873-.00305,.01331-.00403,.01752-.00836,.0365Z"/>
      <path class="cls-1" d="M294.4892,269.37177c-.00928,.01154-.01843,.02301-.02759,.03455-.01086,.01361-.02148,.02704-.03247,.04065,.01953-.02441,.04126-.0517,.06006-.0752Z"/>
      <polygon class="cls-1" points="295.09198 63.34387 295.09271 63.34491 295.09967 63.35352 295.09198 63.34387"/>
      <path class="cls-1" d="M2.87415,203.12073c-.00354-.0155-.00775-.03394-.01135-.04987-.0069-.03027-.01385-.06067-.02081-.09106,.01007,.04407,.02148,.09412,.03217,.14093Z"/>
      <path class="cls-1" d="M3.07391,203.99585c.00433,.01898,.00531,.02319,.00836,.0365-.00085-.00378-.00104-.00452-.00201-.00873-.00201-.00867-.00403-.01752-.00635-.02777Z"/>
      <path class="cls-1" d="M2.84198,128.97992c.00696-.0304,.01392-.06079,.02081-.09106,.0036-.01593,.00781-.03436,.01135-.04987-.01068,.04681-.02209,.09686-.03217,.14093Z"/>
      <path class="cls-1" d="M235.77814,315.94775c-.04034,.01941-.07544,.03632-.10474,.05042-.00616,.00299-.01196,.0058-.01752,.00848,.03973-.01917,.08386-.04041,.12225-.0589Z"/>
      <path class="cls-1" d="M93.51245,315.94775c.0304,.01465,.06549,.03156,.09674,.04663-.00732-.00354-.01166-.00562-.01978-.00958-.02295-.01105-.04877-.0235-.07697-.03705Z"/>
      <path class="cls-1" d="M2.57733,201.82037c.00122,.00549,.00262,.01117,.00385,.01672-.00031-.00128-.00092-.00409-.00122-.00531-.00079-.00342-.00183-.00812-.00262-.01141Z"/>
      <path class="cls-1" d="M2.57733,130.13934c.00079-.0033,.00183-.008,.00262-.01141,.00031-.00122,.00092-.00403,.00122-.00531-.00122,.00555-.00262,.01123-.00385,.01672Z"/>
      <path class="cls-1" d="M34.6297,269.15643c-.03668-.04608-.065-.08148-.0976-.12238-.02185-.0274-.04041-.05072-.06299-.07904,.05048,.06323,.10455,.13116,.16058,.20142Z"/>
      <path class="cls-1" d="M326.28436,128.26007c.00293,.01306,.00684,.02997,.01001,.04388,.00537,.0238,.01135,.0498,.01672,.07343-.00928-.04071-.01831-.08014-.02673-.11731Z"/>
      <path class="cls-1" d="M158.49866,255.40198c0,3.50122,.96826,6.0351,2.90479,7.6015,1.93652,1.56561,4.18195,2.34839,6.73621,2.34839v.55646c-.86536,0-1.59662,.23608-2.19397,.71088-.59729,.47308-1.04016,1.05969-1.32855,1.7608-.53516,1.52386-.80408,2.8631-.80408,4.01691v1.854c.12421,2.67761,.66028,4.67535,1.60724,5.9942,.94788,1.31885,2.55518,2.05994,4.82007,2.22498v-37.75903c-3.70801,.04083-6.59149,1.04016-8.65143,2.99713-2.05988,1.95605-3.09027,4.521-3.09027,7.69379Z"/>
      <path class="cls-1" d="M246.1012,172.67218c1.95605,2.05988,4.52094,3.09033,7.69379,3.09033,3.50122,0,6.03503-.96826,7.6015-2.90479,1.56555-1.93658,2.34833-4.18195,2.34833-6.73621h.55652c0,.8653,.23602,1.59662,.71088,2.19391,.47302,.59729,1.05969,1.04016,1.7608,1.32861,1.52386,.53516,2.8631,.80408,4.01685,.80408h1.854c2.67761-.12421,4.67542-.66028,5.99426-1.60724,1.31885-.94788,2.05981-2.55511,2.22498-4.82007l-37.75903-.00006c.04083,3.70801,1.04016,6.59149,2.99713,8.65143Z"/>
      <path class="cls-1" d="M173.79193,77.59369c0-3.50122-.96826-6.03503-2.90479-7.6015-1.93658-1.56555-4.18195-2.34833-6.73621-2.34833v-.55646c.8653,0,1.59662-.23608,2.19391-.71094,.59729-.47302,1.04016-1.05969,1.32861-1.7608,.53516-1.52386,.80408-2.8631,.80408-4.01685v-1.854c-.12427-2.67761-.66028-4.67542-1.6073-5.99426-.94781-1.31879-2.55511-2.05988-4.82001-2.22498v37.75903c3.70801-.04083,6.59149-1.04016,8.65143-2.99713,2.05988-1.95605,3.09027-4.52094,3.09027-7.69379Z"/>
      <path class="cls-1" d="M75.98676,157.46918c-3.50122,0-6.0351,.96826-7.6015,2.90485-1.56561,1.93652-2.34839,4.18188-2.34839,6.73615h-.55646c0-.8653-.23608-1.59662-.71088-2.19391-.47308-.59729-1.05969-1.04016-1.7608-1.32861-1.52386-.53516-2.8631-.80408-4.01691-.80408h-1.854c-2.67761,.12421-4.67535,.66028-5.9942,1.60724-1.31885,.94788-2.05994,2.55511-2.22498,4.82007l37.75897,.00006c-.04077-3.70801-1.0401-6.59149-2.99707-8.65143-1.95605-2.05988-4.52094-3.09027-7.69379-3.09033Z"/>
      <path class="cls-1" d="M302.02167,154.20789l27.26892-12.77643c-1.32043-5.78534-2.10876-9.23944-2.55994-11.216-.00098-.00452-.00781-.03424-.01367-.05981-.00342-.01508-.00708-.03107-.0105-.04596,.00146,.00659,.00281,.01221,.00415,.01819-.00732-.03247-.02136-.09375-.03198-.14014-.02173-.09454-.04236-.18549-.0625-.27344,.00928,.04071,.01831,.08014,.02686,.11731-.01184-.05194-.02539-.11108-.03992-.17499-.01306-.05719-.02673-.11682-.03894-.17084-.01941-.08496-.04077-.17828-.06409-.28058-.00696-.03082-.01453-.06378-.02136-.09338,.00439,.01965,.00903,.03918,.01343,.05878-.02026-.08875-.0415-.18207-.06494-.28412,.01648,.07184,.03308,.14447,.05151,.22534-.05884-.25739-.11816-.51819-.1676-.73444,.00427,.01904,.00891,.03906,.01306,.05768-.01086-.04785-.02026-.08966-.02979-.1311-.01831-.08044-.03662-.16028-.05664-.24811-.00635-.02783-.01208-.05286-.01685-.07385-.00342-.01489-.00708-.03088-.0105-.04596-.00586-.02557-.0127-.0553-.01367-.05981-.45117-1.97656-1.2395-5.43066-2.56006-11.216l-30.11182,.32037c-6.62122-13.74908-3.59412-7.46326-10.21533-21.21228l19.0249-23.34271c-3.69995-4.63947-5.90881-7.40948-7.17285-8.99457-.00354-.00433-.01392-.01727-.03564-.04468,.00049,.00061,.00073,.0011,.00122,.00165-.00232-.00299-.00488-.00616-.00732-.00916-.00757-.00964-.01709-.02148-.0271-.03394-.03088-.0387-.06396-.08014-.09314-.11688,.00879,.01111,.01599,.02002,.02429,.03033-.06079-.07623-.1521-.19073-.26025-.32629-.06885-.08636-.14673-.18408-.20874-.26184,.01172,.01471,.02319,.0293,.03491,.04388-.02222-.02777-.04639-.05823-.07007-.08789-.1366-.17133-.25305-.31726-.35352-.44324,.01172,.01459,.02295,.02875,.03467,.04358-.08252-.10364-.17175-.21552-.26721-.33514,.0127,.01593,.02563,.03204,.03894,.04871-.03296-.04132-.06201-.07751-.08911-.11163-.01685-.02112-.03137-.03937-.04858-.06104,.01001,.01276,.02173,.02722,.03247,.04083-.02051-.0257-.03821-.04785-.0553-.06927-.00732-.00922-.01477-.01874-.02173-.0274-.02698-.03387-.04968-.06213-.0675-.08459,.00195,.00244,.00439,.00549,.00635,.008-.00342-.00439-.00708-.00903-.01074-.01343-.01013-.01276-.02002-.02533-.02734-.0343,.00293,.00366,.0061,.00751,.0094,.01172-.00427-.00549-.00891-.01123-.01331-.01672-.0249-.03119-.02881-.03607-.01514-.01904-1.26306-1.58374-3.47339-4.35529-7.17944-9.00262l-26.99084,13.3537c-11.93103-9.51465-6.47638-5.16473-18.40735-14.67938l7.01282-29.28564c-5.34235-2.57275-8.53363-4.10956-10.36096-4.98956-.00281-.00134-.01624-.00793-.0351-.01697,.00146,.00073,.00244,.00122,.00385,.00189-.00391-.00189-.00793-.00385-.01184-.00568,.00256,.00128,.00568,.00262,.008,.00378-.0166-.008-.03973-.01904-.07013-.03369-.03125-.01508-.06635-.03198-.09674-.04663,.0282,.01355,.05402,.026,.07697,.03705-.10211-.04913-.27386-.1319-.52563-.25311,.0141,.00677,.0282,.01361,.04205,.02026-.1441-.0694-.2785-.13409-.3999-.19257,.02057,.00989,.04114,.01984,.06158,.02966-.17645-.08496-.3783-.18225-.61462-.29602,.01385,.00665,.02795,.01349,.04205,.02026-.25177-.12122-.42352-.20398-.52563-.25311-.02014-.0097-.03296-.01587-.04834-.02332-.01459-.00696-.03174-.0152-.04156-.01996,.00232,.00116,.00543,.0025,.008,.00378-.00391-.00183-.00793-.00378-.01184-.00568-.02228-.01074-.03461-.01672-.03125-.01508-1.82733-.88-5.01862-2.41681-10.36096-4.98956l-18.52405,23.74219c-14.87769-3.39575-8.07587-1.84326-22.95355-5.23901L177.34937,0h-11.49945c.02954,0-.56451,0-2.4093,0h-11.49945l-6.38824,29.42822c-14.87769,3.39575-8.07587,1.84326-22.95355,5.23901l-18.52405-23.74213c-5.35858,2.58057-8.55316,4.11896-10.37769,4.99762-.00659,.00317-.01477,.00708-.02594,.01245,.00104-.00049,.0022-.00104,.00311-.00146-.00568,.00275-.01166,.00562-.01733,.0083-.02161,.01038-.05035,.02423-.08557,.0412,.0108-.00525,.01874-.00897,.02844-.01367-.01208,.0058-.02484,.01196-.03741,.01801-.02051,.00989-.04272,.02057-.06628,.03192,.01538-.00745,.03363-.01624,.04926-.02374-.01788,.00861-.0448,.02161-.0661,.03186-.03833,.01843-.07373,.03552-.11163,.05377-.2453,.1181-.63379,.3053-1.21533,.58533-.0824,.03967-.17224,.08295-.26239,.12634-.0379,.01825-.0733,.03534-.11163,.05377-.0213,.01025-.04822,.02325-.0661,.03186-.01727,.0083-.03687,.0177-.05444,.02618,.0097-.0047,.01764-.00842,.02844-.01367-.03522,.01697-.06396,.03082-.08557,.0412-.00531,.00262-.00964,.00464-.01422,.00684-.01117,.00537-.01935,.00928-.02594,.01245-1.82452,.87866-5.0191,2.41705-10.37769,4.99762l7.01288,29.28571c-11.93103,9.51459-6.47638,5.16467-18.40735,14.67932l-26.99091-13.35364c-3.69989,4.63947-5.90881,7.40948-7.17291,8.99457-.00702,.00879-.0498,.06238-.1377,.17261,.00726-.00916,.01459-.01825,.02136-.02673-.0639,.08008-.12225,.15326-.18097,.22693,.01141-.01428,.02271-.02856,.03369-.0423-.08105,.10168-.18304,.22955-.30811,.38635,.0271-.034,.05371-.06726,.08002-.10028-.38885,.48761-.64569,.80963-.80243,1.00616,.12878-.16144,.30304-.38,.48346-.60626-1.07312,1.34564-3.37469,4.23169-7.85822,9.85388l19.0249,23.34271c-6.62115,13.74902-3.59406,7.46326-10.21527,21.21228l-30.11188-.32031c-1.32104,5.78784-2.1095,9.24243-2.56055,11.21857-.00433,.01898-.00879,.03857-.01306,.05725-.00342,.01508-.00708,.03107-.0105,.04596-.00482,.021-.01056,.04602-.01691,.07385-.01672,.0733-.0321,.14087-.04785,.20978,.00446-.01953,.00848-.03705,.0127-.05554-.01465,.06433-.0318,.13934-.05133,.22498,.01257-.05481,.02545-.11157,.03864-.16943-.04034,.17657-.09027,.39569-.14221,.62317-.02228,.09753-.0462,.20221-.07227,.31641-.02332,.10229-.04468,.19562-.06403,.28058-.01227,.05402-.026,.11365-.039,.17084-.01459,.0639-.02808,.12305-.03992,.17499,.00848-.03717,.01752-.0766,.02679-.11731-.01959,.08575-.03979,.17426-.06079,.26617-.01086,.04767-.02478,.10864-.03241,.14209,.00031-.00134,.00061-.00275,.00092-.00403-.00073,.00317-.00146,.00629-.00214,.00934-.01093,.04797-.01752,.07672-.01965,.08612-.45111,1.97638-1.2395,5.43073-2.5603,11.21741l27.26886,12.77649v23.54382L0,190.52826c1.3208,5.78668,2.10919,9.24103,2.5603,11.21741,.00214,.0094,.00873,.03815,.01965,.08612,.00067,.00305,.0014,.00616,.00214,.00934-.00031-.00128-.00061-.00269-.00092-.00403,.00763,.03345,.02155,.09442,.03241,.14209,.021,.09192,.0412,.18042,.06079,.26617-.00928-.04071-.01831-.08014-.02679-.11731,.01184,.05194,.02533,.11108,.03992,.17499,.013,.05719,.02673,.11682,.039,.17084,.01935,.08496,.04071,.17828,.06403,.28058,.02606,.1142,.04999,.21887,.07227,.31641,.05194,.22748,.10187,.44659,.14221,.62317-.01318-.05786-.02606-.11462-.03864-.16943,.01953,.08563,.03668,.16064,.05133,.22498-.00421-.01849-.00824-.03601-.0127-.05554,.01575,.06891,.03113,.13647,.04785,.20978,.00635,.02783,.01208,.05286,.01691,.07385,.00342,.01489,.00708,.03088,.0105,.04596,.00427,.01868,.00873,.03827,.01306,.05725,.45105,1.97614,1.2395,5.43073,2.56055,11.21857l30.11188-.32031c6.62122,13.74902,3.59412,7.4632,10.21533,21.21228l-19.0249,23.34271c3.70911,4.65106,5.91998,7.4234,7.18243,9.00647,.00043,.00055,.00122,.00159,.00171,.0022-.00006-.00012-.00012-.00012-.00018-.00024,.01025,.01288,.021,.02631,.03113,.039-.01385-.01733-.02374-.02979-.03094-.03876,.021,.02637,.065,.0816,.12366,.15509-.00641-.00806-.01251-.01581-.01843-.02319,.07483,.09381,.14337,.17981,.21118,.26477-.0072-.00903-.01355-.01703-.02063-.02588,.02753,.03448,.06396,.08026,.09601,.12048,.07062,.08856,.14105,.17676,.20367,.25537-.01172-.01471-.02332-.0293-.03497-.04388,.02216,.02777,.04639,.05823,.07007,.08789,.06525,.08179,.125,.15674,.18176,.22791-.00916-.01154-.01837-.02301-.02753-.03455,.01819,.02277,.03918,.04913,.05811,.07288,.06073,.07611,.11591,.14539,.16699,.20941-.00562-.00708-.01123-.0141-.01691-.02118,.01971,.02472,.03729,.04688,.05768,.07239,.07544,.0946,.138,.17297,.19226,.24103,.07507,.09406,.15509,.19446,.23822,.29871,.00281,.00354,.00244,.00311,.00354,.00446,1.2641,1.58508,3.47302,4.3551,7.17291,8.99457l26.99091-13.35364c11.93097,9.51459,6.47638,5.16467,18.40735,14.67932l-7.01282,29.28564c5.34235,2.57275,8.53363,4.10956,10.36096,4.98956,.00281,.00134,.01624,.00793,.0351,.01697-.00146-.00073-.00244-.00122-.00385-.00189,.00391,.00189,.00793,.00385,.01184,.00568-.00256-.00128-.00568-.00262-.008-.00378,.0166,.008,.03973,.01904,.07013,.03369,.03125,.01508,.06635,.03198,.09674,.04663-.0282-.01355-.05402-.026-.07697-.03705,.10211,.04913,.27386,.1319,.52563,.25311-.0141-.00677-.0282-.01361-.04205-.02026,.23633,.11377,.43817,.21106,.61462,.29602-.02045-.00983-.04102-.01978-.06158-.02966,.1214,.05847,.2558,.12317,.3999,.19257-.01385-.00665-.02795-.01349-.04205-.02026,.25177,.12122,.42352,.20398,.52563,.25311,.02014,.0097,.03296,.01587,.04834,.02332,.01459,.00696,.03174,.0152,.04156,.01996-.00232-.00116-.00543-.0025-.008-.00378,.00391,.00183,.00793,.00378,.01184,.00568,.02228,.01074,.03461,.01672,.03125,.01508,1.82733,.88,5.01862,2.41681,10.36096,4.98956l18.52399-23.74213c14.87769,3.39569,8.07593,1.84326,22.95361,5.23895l6.38818,29.42822h11.49951c-.02954,0,.56445,0,2.40924,0h11.49951l6.38824-29.42822c14.87769-3.39575,8.07587-1.84326,22.95355-5.23901l18.52399,23.74219c5.35632-2.57947,8.55035-4.11768,10.37531-4.99652-.0199,.00958-.01544,.00745,.01691-.00812,.00391-.00189,.00793-.00385,.01184-.00568-.00256,.00128-.00562,.00262-.008,.00378,.008-.00385,.0199-.00952,.03131-.01501,.00995-.00482,.01849-.00897,.03082-.01489,.10614-.05109,.30975-.14911,.63672-.30658-.0426,.02051-.08466,.04077-.12537,.06036,.17181-.0827,.32465-.15631,.46436-.22363-.07727,.03723-.15399,.07422-.22955,.1106,.19891-.09583,.44641-.21497,.73151-.35229,.1828-.08807,.31622-.15234,.41034-.19763,.04169-.02008,.07874-.03784,.12201-.05872,.00665-.00317,.01349-.00653,.01898-.00916,1.81989-.8764,5.01984-2.41748,10.40485-5.01074l-7.01282-29.28564c11.93097-9.51465,6.47638-5.16473,18.40735-14.67938l26.99084,13.3537c3.69995-4.63947,5.90894-7.40948,7.17297-8.99457,.0011-.00134,.00073-.00092,.00354-.00446,.23157-.29041,.43213-.54199,.60315-.75635-.01172,.01471-.02332,.0293-.03503,.04388,.02222-.02777,.04639-.05823,.07007-.08789,.04907-.0614,.09863-.12366,.1543-.19336,.01819-.02277,.03918-.04913,.05811-.07288,.02368-.02966,.04785-.06012,.07007-.08789-.01172,.01459-.02319,.02917-.03491,.04388,.1709-.21436,.37158-.46594,.60303-.75635-.00439,.00568-.0127,.01599-.02197,.02765,.021-.02637,.03003-.0376,.02563-.0321,1.26404-1.58508,3.4729-4.3551,7.17285-8.99457l-19.0249-23.34271c6.62122-13.74902,3.59412-7.4632,10.21533-21.21228l30.11182,.32031c1.3208-5.78668,2.10925-9.24103,2.5603-11.21741,.00562-.02478,.01147-.05042,.01709-.07471,.00146-.00677,.00317-.01404,.00476-.02075,.00549-.02448,.01233-.0542,.02026-.08881,.02063-.09027,.03931-.1723,.05823-.25476,.00854-.03815,.01709-.07513,.02686-.11835-.00415,.01862-.00879,.03864-.01306,.05768,.04944-.21625,.10876-.47705,.1676-.73444-.01843,.08087-.03503,.1535-.05151,.22534,.02612-.1142,.05005-.21887,.07227-.31641-.00684,.03027-.01379,.06067-.02075,.09106,.01001-.04407,.02148-.09412,.03223-.14093,.01367-.0603,.02588-.11334,.03809-.1673,.01733-.07538,.0354-.15466,.05408-.23657,.01953-.08563,.03674-.16064,.05139-.22498-.00427,.01849-.0083,.03601-.0127,.05554,.01562-.06891,.03101-.13647,.04785-.20978-.00977,.04272-.02148,.09436-.03516,.15424,.02222-.09814,.04053-.17749,.05383-.23608-.00061,.00262-.00122,.00537-.00183,.008,.00146-.00659,.00281-.01221,.00415-.01819,.01001-.04419,.01685-.07379,.01941-.08502,.45105-1.97614,1.2395-5.43073,2.56055-11.21857l-27.26892-12.77643v-23.54388Zm-232.83331,36.0769c-1.19458,0-2.41046-.06213-3.64587-.18549l-.06213-.61859c7.66364,0,13.39075-2.53296,17.18042-7.60059l-32.44464-.00006c-1.11206,.04169-2.02887,.45349-2.75037,1.23535-.71979,.78369-1.08099,1.68982-1.08099,2.71936v.80316h-.61774l.00006-19.03345c0-7.00421,1.586-12.15356,4.75793-15.44977,1.73065-1.77142,3.81189-2.65717,6.24188-2.65717,2.67847,0,4.92389,.88574,6.73615,2.65723,.86536,.78278,1.48303,1.66852,1.854,2.65717v-.61768c0-2.80188,.96832-5.37653,2.90485-7.72485s4.55292-3.52252,7.84827-3.52252c3.2962,0,6.03589,1.17419,8.21918,3.52252,3.79053,3.99646,5.68536,10.13452,5.6853,18.41583,0,16.93274-6.94214,25.39954-20.82629,25.39954Zm71.97345-123.13531l.61859-.06207c0,7.66364,2.53296,13.39069,7.60065,17.18036V51.82312c-.04175-1.11206-.45349-2.02881-1.23541-2.75037-.78369-.71979-1.68982-1.08099-2.7193-1.08099h-.80322v-.61768h19.03351c7.00421,0,12.1535,1.58594,15.44971,4.75787,1.77148,1.73065,2.65723,3.81189,2.65723,6.24188,0,2.67847-.88574,4.92389-2.65723,6.73615-.78278,.86536-1.66852,1.48303-2.65717,1.854h.61768c2.80188,0,5.37653,.96832,7.72485,2.90485,2.34839,1.93652,3.52252,4.55292,3.52252,7.84821,0,3.2962-1.17413,6.03595-3.52252,8.21924-3.9964,3.79053-10.1344,5.68536-18.41577,5.68536-16.93274,0-25.3996-6.94208-25.3996-20.82623,0-1.19464,.06213-2.41052,.18549-3.64594Zm49.96692,198.69672l-.61859,.06213c0-7.66364-2.53296-13.39075-7.60059-17.18036v32.44458c.04169,1.11206,.45349,2.02887,1.23541,2.75043,.78363,.71973,1.68982,1.08099,2.7193,1.08099h.80322v.61768h-19.03351c-7.00421,0-12.15356-1.586-15.44977-4.75793-1.77142-1.73065-2.65717-3.81183-2.65717-6.24182,0-2.67853,.88574-4.92389,2.65717-6.73621,.78284-.8653,1.66852-1.48303,2.65723-1.854h-.61768c-2.80188,0-5.37653-.96826-7.72491-2.90479-2.34833-1.93658-3.52252-4.55292-3.52252-7.84827,0-3.2962,1.17419-6.03595,3.52252-8.21918,3.99646-3.79059,10.13446-5.68536,18.41583-5.68536,16.93274,0,25.39954,6.94208,25.39954,20.82623,0,1.19458-.06213,2.41046-.18549,3.64587Zm-26.48346-36.36639c-34.79395,0-63-28.20605-63-63s28.20605-63,63-63,63,28.20605,63,63-28.20605,63-63,63Zm119.36932-63.8526c0,7.00421-1.58594,12.15356-4.75793,15.44977-1.73059,1.77142-3.81189,2.65717-6.24182,2.65717-2.67853,0-4.92389-.88574-6.73621-2.65723-.8653-.78278-1.48303-1.66852-1.854-2.65717v.61768c0,2.80188-.96826,5.37653-2.90479,7.72485-1.93658,2.34833-4.55292,3.52252-7.84827,3.52252-3.2962,0-6.03595-1.17419-8.21918-3.52252-3.79059-3.99646-5.68536-10.13446-5.68536-18.41583,.00006-16.93274,6.94214-25.39954,20.82629-25.39954,1.19464,0,2.41052,.06213,3.64594,.18549l.06207,.61859c-7.66357,0-13.39069,2.53296-17.18036,7.60059l32.44464,.00006c1.11206-.04169,2.02881-.45349,2.75037-1.23535,.71985-.78369,1.08093-1.68982,1.08093-2.71936v-.80316h.61768v19.03345Z"/>
      <path class="cls-1" d="M93.5719,15.98322c-.00757,.0036-.01776,.00854-.026,.01251,.00543-.00262,.01129-.00543,.01703-.00818,.00275-.00134,.00629-.00305,.00897-.00433Z"/>
      <path class="cls-1" d="M326.68964,130.03583c-.01245-.05444-.02783-.12183-.04663-.20422,.01514,.06616,.02393,.10443,.03564,.15613,.00378,.0166,.00708,.03107,.01099,.0481Z"/>
    </g>
  </g>
</svg>